<mxfile host="Electron" modified="2024-05-28T00:33:31.509Z" agent="Mozilla/5.0 (Macintosh; Intel Mac OS X 10_15_7) AppleWebKit/537.36 (KHTML, like Gecko) draw.io/24.4.6 Chrome/124.0.6367.207 Electron/30.0.6 Safari/537.36" etag="ISXYixISS5Fu36VPvI3H" version="24.4.6" type="device">
  <diagram name="Page-1" id="mqSlGxhzuqs3_dw6EDk-">
    <mxGraphModel dx="3161" dy="2167" grid="0" gridSize="10" guides="1" tooltips="1" connect="1" arrows="1" fold="1" page="1" pageScale="1" pageWidth="850" pageHeight="1100" math="0" shadow="0">
      <root>
        <mxCell id="0" />
        <mxCell id="1" parent="0" />
        <mxCell id="9GiX7k3YX_MBMq_r-eMD-21" value="" style="whiteSpace=wrap;html=1;dashed=1;strokeWidth=3;" vertex="1" parent="1">
          <mxGeometry x="490.5" y="158" width="389" height="470" as="geometry" />
        </mxCell>
        <mxCell id="9GiX7k3YX_MBMq_r-eMD-20" value="" style="whiteSpace=wrap;html=1;dashed=1;strokeWidth=3;" vertex="1" parent="1">
          <mxGeometry x="-22" y="155" width="389" height="470" as="geometry" />
        </mxCell>
        <mxCell id="9GiX7k3YX_MBMq_r-eMD-9" value="" style="whiteSpace=wrap;html=1;" vertex="1" parent="1">
          <mxGeometry x="-431.5" y="210" width="224" height="230" as="geometry" />
        </mxCell>
        <mxCell id="9GiX7k3YX_MBMq_r-eMD-8" value="" style="whiteSpace=wrap;html=1;" vertex="1" parent="1">
          <mxGeometry x="-820" y="210" width="224" height="230" as="geometry" />
        </mxCell>
        <mxCell id="sw1e_gQs27e_M16vDIyy-1" value="&lt;span style=&quot;font-size: 14px;&quot;&gt;&lt;b&gt;(CHAPTER 2) SYSTEM DESIGN INTERVIEWS&amp;nbsp;&lt;/b&gt;&lt;/span&gt;&lt;div&gt;&lt;span style=&quot;font-size: 14px;&quot;&gt;&lt;b&gt;&lt;br&gt;&lt;/b&gt;&lt;/span&gt;&lt;/div&gt;&lt;div&gt;&lt;ul&gt;&lt;li&gt;&lt;span style=&quot;font-size: 14px;&quot;&gt;&lt;b&gt;Rule of thumb is when some aspect of the system increases by a factor of 10 or more, the same design might not hold and might require change&amp;nbsp;&lt;/b&gt;&lt;/span&gt;&lt;/li&gt;&lt;li&gt;&lt;span style=&quot;font-size: 14px;&quot;&gt;Distributed systems refresh is recommended for this course&amp;nbsp;&lt;/span&gt;&lt;/li&gt;&lt;ul&gt;&lt;li&gt;&lt;span style=&quot;font-size: 14px;&quot;&gt;Robustness (maintain operations during a crisis)&lt;/span&gt;&lt;/li&gt;&lt;li&gt;&lt;span style=&quot;font-size: 14px;&quot;&gt;Scalability&lt;/span&gt;&lt;/li&gt;&lt;li&gt;&lt;span style=&quot;font-size: 14px;&quot;&gt;Availability&lt;/span&gt;&lt;/li&gt;&lt;li&gt;&lt;span style=&quot;font-size: 14px;&quot;&gt;Performance&amp;nbsp;&lt;/span&gt;&lt;/li&gt;&lt;li&gt;&lt;span style=&quot;font-size: 14px;&quot;&gt;Extensibility&lt;/span&gt;&lt;/li&gt;&lt;li&gt;&lt;span style=&quot;font-size: 14px;&quot;&gt;Resiliency (ability to return to normal operations over an acceptable period of time post disruption&lt;/span&gt;&lt;/li&gt;&lt;/ul&gt;&lt;li&gt;&lt;span style=&quot;font-size: 14px;&quot;&gt;Ask WHY the system works&amp;nbsp;&lt;/span&gt;&lt;/li&gt;&lt;ul&gt;&lt;li&gt;&lt;span style=&quot;font-size: 14px;&quot;&gt;learn how popular apps work at a high level&amp;nbsp;&lt;/span&gt;&lt;/li&gt;&lt;li&gt;&lt;span style=&quot;font-size: 14px;&quot;&gt;ask why x component was used instead of y component&amp;nbsp;&lt;/span&gt;&lt;/li&gt;&lt;li&gt;&lt;span style=&quot;font-size: 14px;&quot;&gt;build serious side projects&lt;/span&gt;&lt;/li&gt;&lt;li&gt;&lt;span style=&quot;font-size: 14px;&quot;&gt;build a system from scratch&amp;nbsp;&lt;/span&gt;&lt;/li&gt;&lt;/ul&gt;&lt;li&gt;&lt;span style=&quot;font-size: 14px;&quot;&gt;Perform Well During Interview&amp;nbsp;&lt;/span&gt;&lt;/li&gt;&lt;ul&gt;&lt;li&gt;&lt;span style=&quot;font-size: 14px;&quot;&gt;Recommended steps to include&amp;nbsp;&lt;/span&gt;&lt;/li&gt;&lt;ul&gt;&lt;li&gt;&lt;span style=&quot;font-size: 14px;&quot;&gt;Ask Refining Questions&amp;nbsp;&lt;/span&gt;&lt;/li&gt;&lt;ul&gt;&lt;li&gt;&lt;span style=&quot;font-size: 14px;&quot;&gt;put on product manager hat and prioritize main features&amp;nbsp;&lt;/span&gt;&lt;/li&gt;&lt;li&gt;&lt;span style=&quot;font-size: 14px;&quot;&gt;go on a journey about why our design is good&amp;nbsp;&lt;/span&gt;&lt;/li&gt;&lt;li&gt;&lt;span style=&quot;font-size: 14px;&quot;&gt;Divide into functional and non-functional requirements&amp;nbsp;&lt;/span&gt;&lt;/li&gt;&lt;ul&gt;&lt;li&gt;&lt;span style=&quot;font-size: 14px;&quot;&gt;FUNCTIONAL = requirements clients need directly&amp;nbsp;&lt;/span&gt;&lt;/li&gt;&lt;ul&gt;&lt;li&gt;&lt;span style=&quot;font-size: 14px;&quot;&gt;e.g. send messages to friends in real time&lt;/span&gt;&lt;/li&gt;&lt;/ul&gt;&lt;li&gt;&lt;span style=&quot;font-size: 14px;&quot;&gt;NON FUNCTIONAL = indirect needs&amp;nbsp;&lt;/span&gt;&lt;/li&gt;&lt;ul&gt;&lt;li&gt;&lt;span style=&quot;font-size: 14px;&quot;&gt;e.g. messaging performance shouldn&#39;t degrade with increasing user load&amp;nbsp;&lt;/span&gt;&lt;/li&gt;&lt;/ul&gt;&lt;/ul&gt;&lt;/ul&gt;&lt;li&gt;&lt;span style=&quot;font-size: 14px;&quot;&gt;Handle The Data&amp;nbsp;&lt;/span&gt;&lt;/li&gt;&lt;ul&gt;&lt;li&gt;&lt;span style=&quot;font-size: 14px;&quot;&gt;Understand data to look for appropriate data storage systems and processing components&amp;nbsp;&lt;/span&gt;&lt;/li&gt;&lt;li&gt;&lt;span style=&quot;font-size: 14px;&quot;&gt;important questions to ask ourself&amp;nbsp;&lt;/span&gt;&lt;/li&gt;&lt;ul&gt;&lt;li&gt;&lt;span style=&quot;font-size: 14px;&quot;&gt;What&#39;s the size of data right now ?&lt;/span&gt;&lt;/li&gt;&lt;li&gt;&lt;span style=&quot;font-size: 14px;&quot;&gt;What rate is data expected to grow over time?&lt;/span&gt;&lt;/li&gt;&lt;li&gt;&lt;span style=&quot;font-size: 14px;&quot;&gt;How will the data be consumed by other subsystems or end users?&lt;/span&gt;&lt;/li&gt;&lt;li&gt;&lt;span style=&quot;font-size: 14px;&quot;&gt;Is the data read heavy or write heavy?&lt;/span&gt;&lt;/li&gt;&lt;li&gt;&lt;span style=&quot;font-size: 14px;&quot;&gt;Do we need strict consistency or eventual consistency?&lt;/span&gt;&lt;/li&gt;&lt;li&gt;&lt;span style=&quot;font-size: 14px;&quot;&gt;Durability target of data?&lt;/span&gt;&lt;/li&gt;&lt;li&gt;&lt;span style=&quot;font-size: 14px;&quot;&gt;Privacy and regulatory requirements do we require for storing or transmitting user data?&lt;/span&gt;&lt;/li&gt;&lt;/ul&gt;&lt;/ul&gt;&lt;li&gt;&lt;span style=&quot;font-size: 14px;&quot;&gt;Discuss The Componenets&lt;/span&gt;&lt;/li&gt;&lt;ul&gt;&lt;li&gt;&lt;span style=&quot;font-size: 14px;&quot;&gt;e.g. front end components&lt;/span&gt;&lt;/li&gt;&lt;li&gt;&lt;span style=&quot;font-size: 14px;&quot;&gt;load balancers&lt;/span&gt;&lt;/li&gt;&lt;li&gt;&lt;span style=&quot;font-size: 14px;&quot;&gt;caches&lt;/span&gt;&lt;/li&gt;&lt;li&gt;&lt;span style=&quot;font-size: 14px;&quot;&gt;databases&lt;/span&gt;&lt;/li&gt;&lt;li&gt;&lt;span style=&quot;font-size: 14px;&quot;&gt;CDN&#39;s&lt;/span&gt;&lt;/li&gt;&lt;li&gt;&lt;span style=&quot;font-size: 14px;&quot;&gt;Firewalls&lt;/span&gt;&lt;/li&gt;&lt;li&gt;&lt;span style=&quot;font-size: 14px;&quot;&gt;etc...&lt;/span&gt;&lt;/li&gt;&lt;/ul&gt;&lt;li&gt;&lt;span style=&quot;font-size: 14px;&quot;&gt;Discuss The Tradeoffs&lt;/span&gt;&lt;/li&gt;&lt;ul&gt;&lt;li&gt;&lt;span style=&quot;font-size: 14px;&quot;&gt;have a follow up plan to tackle any weakness within design&amp;nbsp;&lt;/span&gt;&lt;/li&gt;&lt;li&gt;&lt;span style=&quot;font-size: 14px;&quot;&gt;point out weakness in our design&amp;nbsp;&lt;/span&gt;&lt;/li&gt;&lt;li&gt;&lt;span style=&quot;font-size: 14px;&quot;&gt;something is always failing - we must integrate fault tolerance and security in our design&lt;/span&gt;&lt;/li&gt;&lt;/ul&gt;&lt;/ul&gt;&lt;li&gt;&lt;span style=&quot;font-size: 14px;&quot;&gt;Evaluation&lt;/span&gt;&lt;/li&gt;&lt;ul&gt;&lt;li&gt;&lt;span style=&quot;font-size: 14px;&quot;&gt;Steps to build large scale distributed systems&amp;nbsp;&lt;/span&gt;&lt;/li&gt;&lt;ul&gt;&lt;li&gt;&lt;span style=&quot;font-size: 14px;&quot;&gt;Determine system requirements and constraints&amp;nbsp;&lt;/span&gt;&lt;/li&gt;&lt;li&gt;&lt;span style=&quot;font-size: 14px;&quot;&gt;Recognize components&amp;nbsp;&lt;/span&gt;&lt;/li&gt;&lt;li&gt;&lt;span style=&quot;font-size: 14px;&quot;&gt;Generate Design&amp;nbsp;&lt;/span&gt;&lt;/li&gt;&lt;li&gt;&lt;span style=&quot;font-size: 14px;&quot;&gt;Identify shortcomings in the initial design&amp;nbsp;&lt;/span&gt;&lt;/li&gt;&lt;li&gt;&lt;span style=&quot;font-size: 14px;&quot;&gt;Discuss trade-offs and improve iteratively&lt;/span&gt;&lt;/li&gt;&lt;/ul&gt;&lt;/ul&gt;&lt;/ul&gt;&lt;/ul&gt;&lt;/div&gt;" style="text;whiteSpace=wrap;html=1;" parent="1" vertex="1">
          <mxGeometry x="-820" y="-1077" width="1030" height="991" as="geometry" />
        </mxCell>
        <mxCell id="sw1e_gQs27e_M16vDIyy-2" value="&lt;div style=&quot;text-align: left; font-size: 14px;&quot;&gt;&lt;b style=&quot;background-color: initial;&quot;&gt;&lt;font style=&quot;font-size: 14px;&quot;&gt;(CHAPTER 3) ABSTRACTION&amp;nbsp;&lt;/font&gt;&lt;/b&gt;&lt;/div&gt;&lt;div style=&quot;font-size: 14px;&quot;&gt;&lt;ul style=&quot;&quot;&gt;&lt;li style=&quot;text-align: left;&quot;&gt;Art of removing details we do&amp;nbsp; not need; concentrate on the big picture&lt;/li&gt;&lt;li style=&quot;text-align: left;&quot;&gt;Remote Procedure Calls (RPC)&lt;/li&gt;&lt;ul&gt;&lt;li style=&quot;text-align: left;&quot;&gt;hiding complexities of packing and sending function arguments to remote server, receiving the return values, and managing any network retries&amp;nbsp;&lt;/li&gt;&lt;li style=&quot;text-align: left;&quot;&gt;interprocess communication protocol&amp;nbsp;&lt;/li&gt;&lt;li style=&quot;text-align: left;&quot;&gt;RPC mechanisms employed when computer program causes a procedure to execute in a separate address space&amp;nbsp;&lt;/li&gt;&lt;li style=&quot;text-align: left;&quot;&gt;similar to REST API communication&amp;nbsp;&lt;/li&gt;&lt;/ul&gt;&lt;/ul&gt;&lt;/div&gt;" style="text;html=1;align=center;verticalAlign=middle;resizable=0;points=[];autosize=1;strokeColor=none;fillColor=none;" parent="1" vertex="1">
          <mxGeometry x="-790" width="987" height="158" as="geometry" />
        </mxCell>
        <mxCell id="9GiX7k3YX_MBMq_r-eMD-2" value="DIAGRAM OF HOW RPC WORKS" style="text;html=1;align=center;verticalAlign=middle;resizable=0;points=[];autosize=1;strokeColor=none;fillColor=none;" vertex="1" parent="1">
          <mxGeometry x="-790" y="176" width="204" height="26" as="geometry" />
        </mxCell>
        <mxCell id="9GiX7k3YX_MBMq_r-eMD-3" value="CLIENT" style="whiteSpace=wrap;html=1;" vertex="1" parent="1">
          <mxGeometry x="-784" y="257" width="137" height="50" as="geometry" />
        </mxCell>
        <mxCell id="9GiX7k3YX_MBMq_r-eMD-5" value="CLIENT STUB" style="whiteSpace=wrap;html=1;" vertex="1" parent="1">
          <mxGeometry x="-784" y="326" width="137" height="50" as="geometry" />
        </mxCell>
        <mxCell id="9GiX7k3YX_MBMq_r-eMD-6" value="SERVER" style="whiteSpace=wrap;html=1;" vertex="1" parent="1">
          <mxGeometry x="-388" y="257" width="137" height="50" as="geometry" />
        </mxCell>
        <mxCell id="9GiX7k3YX_MBMq_r-eMD-7" value="SERVER STUB" style="whiteSpace=wrap;html=1;" vertex="1" parent="1">
          <mxGeometry x="-388" y="326" width="137" height="50" as="geometry" />
        </mxCell>
        <mxCell id="9GiX7k3YX_MBMq_r-eMD-10" value="RPC RUNTIME" style="whiteSpace=wrap;html=1;" vertex="1" parent="1">
          <mxGeometry x="-667" y="528" width="320" height="113" as="geometry" />
        </mxCell>
        <mxCell id="9GiX7k3YX_MBMq_r-eMD-11" style="edgeStyle=orthogonalEdgeStyle;rounded=0;orthogonalLoop=1;jettySize=auto;html=1;entryX=0.286;entryY=1.004;entryDx=0;entryDy=0;entryPerimeter=0;startArrow=classic;startFill=1;" edge="1" parent="1" source="9GiX7k3YX_MBMq_r-eMD-10" target="9GiX7k3YX_MBMq_r-eMD-8">
          <mxGeometry relative="1" as="geometry">
            <Array as="points">
              <mxPoint x="-756" y="585" />
            </Array>
          </mxGeometry>
        </mxCell>
        <mxCell id="9GiX7k3YX_MBMq_r-eMD-12" style="edgeStyle=orthogonalEdgeStyle;rounded=0;orthogonalLoop=1;jettySize=auto;html=1;startArrow=classic;startFill=1;" edge="1" parent="1">
          <mxGeometry relative="1" as="geometry">
            <mxPoint x="-347" y="577.5699999999999" as="sourcePoint" />
            <mxPoint x="-291" y="449" as="targetPoint" />
            <Array as="points">
              <mxPoint x="-290.51" y="578" />
            </Array>
          </mxGeometry>
        </mxCell>
        <mxCell id="9GiX7k3YX_MBMq_r-eMD-13" value="" style="edgeStyle=none;orthogonalLoop=1;jettySize=auto;html=1;shape=flexArrow;rounded=1;startSize=8;endSize=8;" edge="1" parent="1">
          <mxGeometry width="100" relative="1" as="geometry">
            <mxPoint x="-166" y="308" as="sourcePoint" />
            <mxPoint x="-66" y="308" as="targetPoint" />
            <Array as="points" />
          </mxGeometry>
        </mxCell>
        <mxCell id="9GiX7k3YX_MBMq_r-eMD-14" value="RETURN&lt;span style=&quot;white-space: pre;&quot;&gt;&#x9;&lt;/span&gt;&lt;span style=&quot;white-space: pre;&quot;&gt;&#x9;&lt;/span&gt;&lt;span style=&quot;white-space: pre;&quot;&gt;&#x9;&lt;/span&gt;&lt;span style=&quot;white-space: pre;&quot;&gt;&#x9;&lt;/span&gt;&lt;span style=&quot;white-space: pre;&quot;&gt;&#x9;&lt;/span&gt;CALL" style="whiteSpace=wrap;html=1;" vertex="1" parent="1">
          <mxGeometry x="15" y="224" width="311" height="60" as="geometry" />
        </mxCell>
        <mxCell id="9GiX7k3YX_MBMq_r-eMD-15" value="UNPACK&lt;span style=&quot;white-space: pre;&quot;&gt;&#x9;&lt;/span&gt;&lt;span style=&quot;white-space: pre;&quot;&gt;&#x9;&lt;/span&gt;&lt;span style=&quot;white-space: pre;&quot;&gt;&#x9;&lt;/span&gt;&lt;span style=&quot;white-space: pre;&quot;&gt;&#x9;&lt;/span&gt;&lt;span style=&quot;white-space: pre;&quot;&gt;&#x9;&lt;/span&gt;PACK" style="whiteSpace=wrap;html=1;" vertex="1" parent="1">
          <mxGeometry x="15" y="350" width="311" height="60" as="geometry" />
        </mxCell>
        <mxCell id="9GiX7k3YX_MBMq_r-eMD-34" style="edgeStyle=orthogonalEdgeStyle;rounded=0;orthogonalLoop=1;jettySize=auto;html=1;exitX=0.75;exitY=1;exitDx=0;exitDy=0;" edge="1" parent="1" source="9GiX7k3YX_MBMq_r-eMD-16" target="9GiX7k3YX_MBMq_r-eMD-17">
          <mxGeometry relative="1" as="geometry">
            <Array as="points">
              <mxPoint x="248" y="744" />
              <mxPoint x="608" y="744" />
            </Array>
          </mxGeometry>
        </mxCell>
        <mxCell id="9GiX7k3YX_MBMq_r-eMD-16" value="RECEIVE&lt;span style=&quot;white-space: pre;&quot;&gt;&#x9;&lt;/span&gt;&lt;span style=&quot;white-space: pre;&quot;&gt;&#x9;&lt;/span&gt;&lt;span style=&quot;white-space: pre;&quot;&gt;&#x9;&lt;/span&gt;&lt;span style=&quot;white-space: pre;&quot;&gt;&#x9;&lt;/span&gt;&lt;span style=&quot;white-space: pre;&quot;&gt;&#x9;&lt;/span&gt;SEND" style="whiteSpace=wrap;html=1;" vertex="1" parent="1">
          <mxGeometry x="15" y="488" width="311" height="60" as="geometry" />
        </mxCell>
        <mxCell id="9GiX7k3YX_MBMq_r-eMD-36" style="edgeStyle=orthogonalEdgeStyle;rounded=0;orthogonalLoop=1;jettySize=auto;html=1;exitX=0.75;exitY=1;exitDx=0;exitDy=0;" edge="1" parent="1" source="9GiX7k3YX_MBMq_r-eMD-17" target="9GiX7k3YX_MBMq_r-eMD-16">
          <mxGeometry relative="1" as="geometry">
            <Array as="points">
              <mxPoint x="755" y="822" />
              <mxPoint x="96" y="822" />
            </Array>
          </mxGeometry>
        </mxCell>
        <mxCell id="9GiX7k3YX_MBMq_r-eMD-17" value="RECEIVE&lt;span style=&quot;white-space: pre;&quot;&gt;&#x9;&lt;/span&gt;&lt;span style=&quot;white-space: pre;&quot;&gt;&#x9;&lt;/span&gt;&lt;span style=&quot;white-space: pre;&quot;&gt;&#x9;&lt;/span&gt;&lt;span style=&quot;white-space: pre;&quot;&gt;&#x9;&lt;/span&gt;&lt;span style=&quot;white-space: pre;&quot;&gt;&#x9;&lt;/span&gt;SEND" style="whiteSpace=wrap;html=1;" vertex="1" parent="1">
          <mxGeometry x="522" y="488" width="311" height="60" as="geometry" />
        </mxCell>
        <mxCell id="9GiX7k3YX_MBMq_r-eMD-18" value="UNPACK&amp;nbsp;&lt;span style=&quot;white-space: pre;&quot;&gt;&#x9;&lt;/span&gt;&lt;span style=&quot;white-space: pre;&quot;&gt;&#x9;&lt;/span&gt;&lt;span style=&quot;white-space: pre;&quot;&gt;&#x9;&lt;span style=&quot;white-space: pre;&quot;&gt;&#x9;&lt;/span&gt;&lt;/span&gt;PACK" style="whiteSpace=wrap;html=1;" vertex="1" parent="1">
          <mxGeometry x="525" y="344" width="311" height="60" as="geometry" />
        </mxCell>
        <mxCell id="9GiX7k3YX_MBMq_r-eMD-19" value="RETURN&lt;span style=&quot;white-space: pre;&quot;&gt;&#x9;&lt;/span&gt;&lt;span style=&quot;white-space: pre;&quot;&gt;&#x9;&lt;/span&gt;&lt;span style=&quot;white-space: pre;&quot;&gt;&#x9;&lt;/span&gt;&lt;span style=&quot;white-space: pre;&quot;&gt;&#x9;&lt;/span&gt;&lt;span style=&quot;white-space: pre;&quot;&gt;&#x9;&lt;/span&gt;CALL" style="whiteSpace=wrap;html=1;" vertex="1" parent="1">
          <mxGeometry x="522" y="224" width="311" height="60" as="geometry" />
        </mxCell>
        <mxCell id="9GiX7k3YX_MBMq_r-eMD-22" value="" style="shape=singleArrow;whiteSpace=wrap;html=1;arrowWidth=0.4;arrowSize=0.4;direction=south;" vertex="1" parent="1">
          <mxGeometry x="228" y="410" width="60" height="80" as="geometry" />
        </mxCell>
        <mxCell id="9GiX7k3YX_MBMq_r-eMD-24" value="" style="shape=singleArrow;whiteSpace=wrap;html=1;arrowWidth=0.4;arrowSize=0.4;direction=south;" vertex="1" parent="1">
          <mxGeometry x="224" y="279" width="60" height="80" as="geometry" />
        </mxCell>
        <mxCell id="9GiX7k3YX_MBMq_r-eMD-25" value="" style="shape=singleArrow;whiteSpace=wrap;html=1;arrowWidth=0.4;arrowSize=0.4;direction=south;" vertex="1" parent="1">
          <mxGeometry x="733" y="279" width="60" height="80" as="geometry" />
        </mxCell>
        <mxCell id="9GiX7k3YX_MBMq_r-eMD-26" value="" style="shape=singleArrow;whiteSpace=wrap;html=1;arrowWidth=0.4;arrowSize=0.4;direction=south;" vertex="1" parent="1">
          <mxGeometry x="733" y="410" width="60" height="80" as="geometry" />
        </mxCell>
        <mxCell id="9GiX7k3YX_MBMq_r-eMD-27" value="" style="shape=singleArrow;whiteSpace=wrap;html=1;arrowWidth=0.4;arrowSize=0.4;direction=north;" vertex="1" parent="1">
          <mxGeometry x="70" y="408" width="60" height="80" as="geometry" />
        </mxCell>
        <mxCell id="9GiX7k3YX_MBMq_r-eMD-28" value="" style="shape=singleArrow;whiteSpace=wrap;html=1;arrowWidth=0.4;arrowSize=0.4;direction=north;" vertex="1" parent="1">
          <mxGeometry x="70" y="274" width="60" height="80" as="geometry" />
        </mxCell>
        <mxCell id="9GiX7k3YX_MBMq_r-eMD-29" value="" style="shape=singleArrow;whiteSpace=wrap;html=1;arrowWidth=0.4;arrowSize=0.4;direction=north;" vertex="1" parent="1">
          <mxGeometry x="574" y="408" width="60" height="80" as="geometry" />
        </mxCell>
        <mxCell id="9GiX7k3YX_MBMq_r-eMD-30" value="" style="shape=singleArrow;whiteSpace=wrap;html=1;arrowWidth=0.4;arrowSize=0.4;direction=north;" vertex="1" parent="1">
          <mxGeometry x="574" y="274" width="60" height="80" as="geometry" />
        </mxCell>
        <mxCell id="9GiX7k3YX_MBMq_r-eMD-35" value="CALL PACKET" style="text;html=1;align=center;verticalAlign=middle;resizable=0;points=[];autosize=1;strokeColor=none;fillColor=none;" vertex="1" parent="1">
          <mxGeometry x="384" y="711" width="98" height="26" as="geometry" />
        </mxCell>
        <mxCell id="9GiX7k3YX_MBMq_r-eMD-37" value="RECEIVE PACKET" style="text;html=1;align=center;verticalAlign=middle;resizable=0;points=[];autosize=1;strokeColor=none;fillColor=none;" vertex="1" parent="1">
          <mxGeometry x="384" y="790" width="121" height="26" as="geometry" />
        </mxCell>
        <mxCell id="9GiX7k3YX_MBMq_r-eMD-38" value="CLIENT" style="text;html=1;align=center;verticalAlign=middle;resizable=0;points=[];autosize=1;strokeColor=none;fillColor=none;" vertex="1" parent="1">
          <mxGeometry x="142" y="190" width="61" height="26" as="geometry" />
        </mxCell>
        <mxCell id="9GiX7k3YX_MBMq_r-eMD-40" value="SERVER" style="text;html=1;align=center;verticalAlign=middle;resizable=0;points=[];autosize=1;strokeColor=none;fillColor=none;" vertex="1" parent="1">
          <mxGeometry x="644" y="190" width="67" height="26" as="geometry" />
        </mxCell>
        <mxCell id="9GiX7k3YX_MBMq_r-eMD-41" value="&lt;b&gt;&lt;i&gt;CLIENT MACHINE&lt;/i&gt;&lt;/b&gt;" style="text;html=1;align=center;verticalAlign=middle;resizable=0;points=[];autosize=1;strokeColor=none;fillColor=none;" vertex="1" parent="1">
          <mxGeometry x="94" y="129" width="121" height="26" as="geometry" />
        </mxCell>
        <mxCell id="9GiX7k3YX_MBMq_r-eMD-42" value="&lt;b&gt;&lt;i&gt;SERVER MACHINE&lt;/i&gt;&lt;/b&gt;" style="text;html=1;align=center;verticalAlign=middle;resizable=0;points=[];autosize=1;strokeColor=none;fillColor=none;" vertex="1" parent="1">
          <mxGeometry x="599" y="129" width="126" height="26" as="geometry" />
        </mxCell>
        <mxCell id="9GiX7k3YX_MBMq_r-eMD-43" value="&lt;b&gt;&lt;font color=&quot;#ff6666&quot; style=&quot;font-size: 28px;&quot;&gt;2&lt;/font&gt;&lt;/b&gt;" style="text;html=1;align=center;verticalAlign=middle;resizable=0;points=[];autosize=1;strokeColor=none;fillColor=none;" vertex="1" parent="1">
          <mxGeometry x="294" y="427" width="34" height="46" as="geometry" />
        </mxCell>
        <mxCell id="9GiX7k3YX_MBMq_r-eMD-44" value="&lt;b&gt;&lt;font color=&quot;#ff6666&quot; style=&quot;font-size: 28px;&quot;&gt;1&lt;/font&gt;&lt;/b&gt;" style="text;html=1;align=center;verticalAlign=middle;resizable=0;points=[];autosize=1;strokeColor=none;fillColor=none;" vertex="1" parent="1">
          <mxGeometry x="288" y="291" width="34" height="46" as="geometry" />
        </mxCell>
        <mxCell id="9GiX7k3YX_MBMq_r-eMD-45" value="&lt;b&gt;&lt;font color=&quot;#ff6666&quot; style=&quot;font-size: 28px;&quot;&gt;4&lt;/font&gt;&lt;/b&gt;" style="text;html=1;align=center;verticalAlign=middle;resizable=0;points=[];autosize=1;strokeColor=none;fillColor=none;" vertex="1" parent="1">
          <mxGeometry x="531" y="432" width="34" height="46" as="geometry" />
        </mxCell>
        <mxCell id="9GiX7k3YX_MBMq_r-eMD-46" value="&lt;b&gt;&lt;font color=&quot;#ff6666&quot; style=&quot;font-size: 28px;&quot;&gt;3&lt;/font&gt;&lt;/b&gt;" style="text;html=1;align=center;verticalAlign=middle;resizable=0;points=[];autosize=1;strokeColor=none;fillColor=none;" vertex="1" parent="1">
          <mxGeometry x="344" y="696" width="34" height="46" as="geometry" />
        </mxCell>
        <mxCell id="9GiX7k3YX_MBMq_r-eMD-47" value="&lt;b&gt;&lt;font color=&quot;#ff6666&quot; style=&quot;font-size: 28px;&quot;&gt;7&lt;/font&gt;&lt;/b&gt;" style="text;html=1;align=center;verticalAlign=middle;resizable=0;points=[];autosize=1;strokeColor=none;fillColor=none;" vertex="1" parent="1">
          <mxGeometry x="813" y="427" width="34" height="46" as="geometry" />
        </mxCell>
        <mxCell id="9GiX7k3YX_MBMq_r-eMD-48" value="&lt;b&gt;&lt;font color=&quot;#ff6666&quot; style=&quot;font-size: 28px;&quot;&gt;6&lt;/font&gt;&lt;/b&gt;" style="text;html=1;align=center;verticalAlign=middle;resizable=0;points=[];autosize=1;strokeColor=none;fillColor=none;" vertex="1" parent="1">
          <mxGeometry x="806" y="291" width="34" height="46" as="geometry" />
        </mxCell>
        <mxCell id="9GiX7k3YX_MBMq_r-eMD-49" value="&lt;b&gt;&lt;font color=&quot;#ff6666&quot; style=&quot;font-size: 28px;&quot;&gt;5&lt;/font&gt;&lt;/b&gt;" style="text;html=1;align=center;verticalAlign=middle;resizable=0;points=[];autosize=1;strokeColor=none;fillColor=none;" vertex="1" parent="1">
          <mxGeometry x="533" y="294" width="34" height="46" as="geometry" />
        </mxCell>
        <mxCell id="9GiX7k3YX_MBMq_r-eMD-50" value="&lt;b&gt;&lt;font color=&quot;#ff6666&quot; style=&quot;font-size: 28px;&quot;&gt;9&lt;/font&gt;&lt;/b&gt;" style="text;html=1;align=center;verticalAlign=middle;resizable=0;points=[];autosize=1;strokeColor=none;fillColor=none;" vertex="1" parent="1">
          <mxGeometry x="22" y="427" width="34" height="46" as="geometry" />
        </mxCell>
        <mxCell id="9GiX7k3YX_MBMq_r-eMD-51" value="&lt;b&gt;&lt;font color=&quot;#ff6666&quot; style=&quot;font-size: 28px;&quot;&gt;8&lt;/font&gt;&lt;/b&gt;" style="text;html=1;align=center;verticalAlign=middle;resizable=0;points=[];autosize=1;strokeColor=none;fillColor=none;" vertex="1" parent="1">
          <mxGeometry x="342" y="770" width="34" height="46" as="geometry" />
        </mxCell>
        <mxCell id="9GiX7k3YX_MBMq_r-eMD-52" value="&lt;b&gt;&lt;font color=&quot;#ff6666&quot; style=&quot;font-size: 28px;&quot;&gt;10&lt;/font&gt;&lt;/b&gt;" style="text;html=1;align=center;verticalAlign=middle;resizable=0;points=[];autosize=1;strokeColor=none;fillColor=none;" vertex="1" parent="1">
          <mxGeometry x="2" y="294" width="49" height="46" as="geometry" />
        </mxCell>
        <mxCell id="9GiX7k3YX_MBMq_r-eMD-54" value="&lt;ol&gt;&lt;li&gt;Client initiates client stub process by giving params; client stub is stored in the address space of client&amp;nbsp;&lt;/li&gt;&lt;li&gt;Client stub converts params into standard format and packs into message; then makes a request for the RPC runtime to send the message to server&lt;/li&gt;&lt;li&gt;Message delivered over network; waits for message result from server&lt;/li&gt;&lt;li&gt;Message is received from server RPC runtime and moves it to server stub&lt;/li&gt;&lt;li&gt;Server stub unpacks message; takes params out; calls server routine to do required execution&lt;/li&gt;&lt;li&gt;result is returned to server stub&lt;/li&gt;&lt;li&gt;server srub packs and sends result packet to RPC runtime&amp;nbsp;&lt;/li&gt;&lt;li&gt;RPC runtime at service level returns the results to RPC runtime at client&amp;nbsp;&lt;/li&gt;&lt;li&gt;client RPC runtime receives the result and sends to client stub&amp;nbsp;&lt;/li&gt;&lt;li&gt;client srub unpacks result, execution process returns to the caller&lt;/li&gt;&lt;/ol&gt;" style="text;html=1;align=left;verticalAlign=middle;resizable=0;points=[];autosize=1;strokeColor=none;fillColor=none;" vertex="1" parent="1">
          <mxGeometry x="-6" y="829" width="846" height="180" as="geometry" />
        </mxCell>
        <mxCell id="9GiX7k3YX_MBMq_r-eMD-55" value="SERVER STUB" style="text;html=1;align=center;verticalAlign=middle;resizable=0;points=[];autosize=1;strokeColor=none;fillColor=none;" vertex="1" parent="1">
          <mxGeometry x="634" y="311" width="102" height="26" as="geometry" />
        </mxCell>
        <mxCell id="9GiX7k3YX_MBMq_r-eMD-56" value="RPC RUNTIME" style="text;html=1;align=center;verticalAlign=middle;resizable=0;points=[];autosize=1;strokeColor=none;fillColor=none;" vertex="1" parent="1">
          <mxGeometry x="114" y="462" width="101" height="26" as="geometry" />
        </mxCell>
        <mxCell id="9GiX7k3YX_MBMq_r-eMD-57" value="CLIENT STUB" style="text;html=1;align=center;verticalAlign=middle;resizable=0;points=[];autosize=1;strokeColor=none;fillColor=none;" vertex="1" parent="1">
          <mxGeometry x="122.5" y="318" width="96" height="26" as="geometry" />
        </mxCell>
        <mxCell id="9GiX7k3YX_MBMq_r-eMD-58" value="RPC RUNTIME" style="text;html=1;align=center;verticalAlign=middle;resizable=0;points=[];autosize=1;strokeColor=none;fillColor=none;" vertex="1" parent="1">
          <mxGeometry x="627" y="464" width="101" height="26" as="geometry" />
        </mxCell>
        <mxCell id="9GiX7k3YX_MBMq_r-eMD-60" value="" style="edgeStyle=none;orthogonalLoop=1;jettySize=auto;html=1;rounded=0;" edge="1" parent="1">
          <mxGeometry width="100" relative="1" as="geometry">
            <mxPoint x="638" y="253.40999999999997" as="sourcePoint" />
            <mxPoint x="738" y="253.40999999999997" as="targetPoint" />
            <Array as="points" />
          </mxGeometry>
        </mxCell>
        <mxCell id="9GiX7k3YX_MBMq_r-eMD-61" value="" style="edgeStyle=none;orthogonalLoop=1;jettySize=auto;html=1;rounded=0;" edge="1" parent="1">
          <mxGeometry width="100" relative="1" as="geometry">
            <mxPoint x="224" y="517.4099999999999" as="sourcePoint" />
            <mxPoint x="124" y="517.4099999999999" as="targetPoint" />
            <Array as="points" />
          </mxGeometry>
        </mxCell>
        <mxCell id="9GiX7k3YX_MBMq_r-eMD-62" value="WAIT" style="text;html=1;align=center;verticalAlign=middle;resizable=0;points=[];autosize=1;strokeColor=none;fillColor=none;" vertex="1" parent="1">
          <mxGeometry x="152" y="496" width="48" height="26" as="geometry" />
        </mxCell>
        <mxCell id="9GiX7k3YX_MBMq_r-eMD-63" value="EXECUTE" style="text;html=1;align=center;verticalAlign=middle;resizable=0;points=[];autosize=1;strokeColor=none;fillColor=none;" vertex="1" parent="1">
          <mxGeometry x="643" y="231" width="75" height="26" as="geometry" />
        </mxCell>
        <mxCell id="9GiX7k3YX_MBMq_r-eMD-64" value="&lt;b&gt;(CHAPTER 3 CONTINUED) ABSTRACTION&lt;/b&gt;&lt;div&gt;&lt;div style=&quot;&quot;&gt;&lt;ul&gt;&lt;li&gt;&lt;span style=&quot;background-color: initial;&quot;&gt;RPC used in many real world services&amp;nbsp;&lt;/span&gt;&lt;/li&gt;&lt;ul&gt;&lt;li&gt;Google&lt;/li&gt;&lt;ul&gt;&lt;li&gt;uses RPC in distributed infra&lt;/li&gt;&lt;li&gt;developed gRPC - open source framework using RPC to build effificent and highly performany distributed systems&lt;/li&gt;&lt;/ul&gt;&lt;li&gt;Uber&lt;/li&gt;&lt;ul&gt;&lt;li&gt;uses RPC real time location tracking, ride matching, communication between drivers and riders&amp;nbsp;&lt;/li&gt;&lt;li&gt;facilitate data exchange between user&#39;s app and server&lt;/li&gt;&lt;/ul&gt;&lt;li&gt;Facebook&lt;/li&gt;&lt;ul&gt;&lt;li&gt;most services written using thrift for RPC&lt;/li&gt;&lt;li&gt;enables interoperability between different languages&lt;/li&gt;&lt;li&gt;e.g. pyuthon client communicating with c++ server&lt;/li&gt;&lt;/ul&gt;&lt;/ul&gt;&lt;/ul&gt;&lt;/div&gt;&lt;/div&gt;" style="text;html=1;align=left;verticalAlign=middle;resizable=0;points=[];autosize=1;strokeColor=none;fillColor=none;" vertex="1" parent="1">
          <mxGeometry x="-784" y="680" width="744" height="209" as="geometry" />
        </mxCell>
        <mxCell id="9GiX7k3YX_MBMq_r-eMD-65" value="(CHAPTER 4) NON-FUNCTIONAL SYSTEM CHARACTERISTICS&lt;div&gt;&lt;div style=&quot;text-align: left;&quot;&gt;&lt;ul&gt;&lt;li&gt;Availability&lt;/li&gt;&lt;ul&gt;&lt;li&gt;percentage of time some service is accessible to clients and operates under normal conditions&lt;/li&gt;&lt;li&gt;e.g. service has 100% availability = responds as intended all the time&amp;nbsp;&lt;/li&gt;&lt;li&gt;Measuring availabilityu&lt;/li&gt;&lt;ul&gt;&lt;li&gt;A (in percent) = ( ( total time - amount of time service was down ) / total time ) * 100&amp;nbsp;&lt;/li&gt;&lt;/ul&gt;&lt;/ul&gt;&lt;/ul&gt;&lt;/div&gt;&lt;div&gt;&lt;br&gt;&lt;/div&gt;&lt;/div&gt;" style="text;html=1;align=center;verticalAlign=middle;resizable=0;points=[];autosize=1;strokeColor=none;fillColor=none;" vertex="1" parent="1">
          <mxGeometry x="-962" y="1057" width="598" height="137" as="geometry" />
        </mxCell>
      </root>
    </mxGraphModel>
  </diagram>
</mxfile>
